<svg xmlns="http://www.w3.org/2000/svg" width="45" height="45"><g fill="#a7a8a3"><rect width="9" height="9"/><rect width="9" height="9" fill="#a0a2a1" x="9"/><rect width="9" height="9" fill="#a0a4a5" x="18"/><rect width="9" height="9" fill="#acacae" x="27"/><rect width="9" height="9" fill="#b0b1b5" x="36"/><rect width="9" height="9" fill="#afb0ab" y="9"/><rect width="9" height="9" fill="#9ea09f" x="9" y="9"/><rect width="9" height="9" fill="#a4a8a9" x="18" y="9"/><rect width="9" height="9" fill="#a8acaf" x="27" y="9"/><rect width="9" height="9" fill="#bdbcc1" x="36" y="9"/><rect width="9" height="9" fill="#b4b5b0" y="18"/><rect width="9" height="9" fill="#a1a3a2" x="9" y="18"/><rect width="9" height="9" fill="#abafb0" x="18" y="18"/><rect width="9" height="9" fill="#aaadb2" x="27" y="18"/><rect width="9" height="9" fill="#94949c" x="36" y="18"/><rect width="9" height="9" fill="#515659" y="27"/><rect width="9" height="9" fill="#21292c" x="9" y="27"/><rect width="9" height="9" fill="#3b3e43" x="18" y="27"/><rect width="9" height="9" fill="#413c42" x="27" y="27"/><rect width="9" height="9" fill="#312a31" x="36" y="27"/><rect width="9" height="9" fill="#747879" y="36"/><rect width="9" height="9" fill="#515757" x="9" y="36"/><rect width="9" height="9" fill="#505155" x="18" y="36"/><rect width="9" height="9" fill="#5c6b66" x="27" y="36"/><rect width="9" height="9" fill="#52514f" x="36" y="36"/></g></svg>