<svg xmlns="http://www.w3.org/2000/svg" width="45" height="45"><g fill="#ffffff"><rect width="9" height="9"/><rect width="9" height="9" x="9"/><rect width="9" height="9" x="18"/><rect width="9" height="9" fill="#fffffd" x="27"/><rect width="9" height="9" fill="#fffffd" x="36"/><rect width="9" height="9" fill="#fdfdfb" y="9"/><rect width="9" height="9" fill="#fffef9" x="9" y="9"/><rect width="9" height="9" fill="#f4f1ec" x="18" y="9"/><rect width="9" height="9" fill="#cac7c0" x="27" y="9"/><rect width="9" height="9" fill="#d3d0c9" x="36" y="9"/><rect width="9" height="9" fill="#fbfcf7" y="18"/><rect width="9" height="9" fill="#f8f5ee" x="9" y="18"/><rect width="9" height="9" fill="#a49d93" x="18" y="18"/><rect width="9" height="9" fill="#676358" x="27" y="18"/><rect width="9" height="9" fill="#706c61" x="36" y="18"/><rect width="9" height="9" fill="#726f6a" y="27"/><rect width="9" height="9" fill="#3d3b2f" x="9" y="27"/><rect width="9" height="9" fill="#959289" x="18" y="27"/><rect width="9" height="9" fill="#6e6b66" x="27" y="27"/><rect width="9" height="9" fill="#9a9790" x="36" y="27"/><rect width="9" height="9" fill="#908d86" y="36"/><rect width="9" height="9" fill="#fffffa" x="9" y="36"/><rect width="9" height="9" fill="#f9f5f2" x="18" y="36"/><rect width="9" height="9" fill="#e3e3e3" x="27" y="36"/><rect width="9" height="9" fill="#e9e9e7" x="36" y="36"/></g></svg>